# xmcd
# Track frame offsets:
# 150
# 14907
# 25472
# 39955
# 53830
# 68600
# 81417
# 90555
# 95452
# 102315
# 110170
# 116102
# 126972
# 133290
# 151870
#
# Disc length: 2070 seconds
# Revision: 0
# Processed by: cddbd v1.4PL0 Copyright (c) Steve Scherf et al.
# Submitted via: VisiTrax 2.9.5.180 - For more info visit www.synapsa.com
#
DISCID=d108140f
DTITLE=Robert Mitchum - Tall Dark Stranger
DYEAR=1997
DGENRE=
TTITLE0=O-He,O-Hi,O-Ho
TTITLE1=Tall Dark Stranger
TTITLE2=Summer Song
TTITLE3=Just Like Me
TTITLE4=Foolish Pride
TTITLE5=Rachel
TTITLE6=Dinah
TTITLE7=I´m Confessin´
TTITLE8=I Get A Kick Out Of You
TTITLE9=What Is This Thing Called Love
TTITLE10=Dream A Little Dream With Me
TTITLE11=Roving Gambler
TTITLE12=Blue Skies
TTITLE13=Young Billy Young
TTITLE14=Young Billy Young (reprise)
EXTD=Bear Family Records BCD 16223 AJ
EXTT0=
EXTT1=
EXTT2=
EXTT3=
EXTT4=
EXTT5=
EXTT6=
EXTT7=
EXTT8=
EXTT9=
EXTT10=
EXTT11=
EXTT12=
EXTT13=
EXTT14=
PLAYORDER=
